<svg width="112" height="55" viewBox="0 0 112 55" fill="none" xmlns="http://www.w3.org/2000/svg">
<ellipse opacity="0.04" cx="84" cy="27" rx="27.5" ry="27" fill="#F20823"/>
<path d="M69.9752 38.2783L51.6284 41.7841" stroke="#F20823" stroke-linecap="round" stroke-linejoin="round"/>
<path d="M49.0906 17.4355L36.7599 21.5102C35.8057 21.8244 34.7693 21.7766 33.8481 21.3759C32.9269 20.9753 32.1852 20.2499 31.7643 19.3378C31.3106 18.3642 31.2532 17.2524 31.6042 16.2372C31.9551 15.2221 32.687 14.3832 33.6452 13.8978L45.5883 7.89239C46.6063 7.37901 47.7188 7.08005 48.857 7.01399C49.9951 6.94794 51.1348 7.11621 52.2053 7.50838L69.8871 13.976" stroke="#F20823" stroke-linecap="round" stroke-linejoin="round"/>
<path d="M10.9351 38.3069H19.6284L32.1156 52.3017C32.7515 53.0386 33.5976 53.5634 34.5403 53.8057C35.4831 54.0479 36.4773 53.9961 37.3898 53.6572C38.3022 53.3182 39.0891 52.7083 39.645 51.9093C40.2009 51.1102 40.4991 50.1603 40.4997 49.187V47.0003L41.1219 47.2492C42.0151 47.6065 42.9823 47.7394 43.9388 47.6365C44.8953 47.5335 45.812 47.1977 46.6088 46.6585C47.4055 46.1193 48.0579 45.393 48.5091 44.5433C48.9602 43.6936 49.1963 42.7463 49.1966 41.7843H50.9353C51.904 41.7836 52.8534 41.5134 53.6773 41.0038C54.5012 40.4942 55.167 39.7654 55.6003 38.8989C56.0335 38.0325 56.217 37.0626 56.1304 36.0977C56.0437 35.1328 55.6902 34.2112 55.1095 33.4358L43.9486 19.1353" stroke="#F20823" stroke-linecap="round" stroke-linejoin="round"/>
<path d="M35.4613 12.9802L34.1884 11.9313C32.9057 10.9868 31.3546 10.4772 29.7617 10.4771C28.8125 10.4767 27.8722 10.659 26.9919 11.0139L11.166 17.3429" stroke="#F20823" stroke-linecap="round" stroke-linejoin="round"/>
<path d="M0.5 11.2911H7.61115C8.51402 11.2534 9.39504 11.575 10.0614 12.1854C10.7278 12.7958 11.1252 13.6453 11.1667 14.548V37.3641C11.1252 38.2671 10.7279 39.1169 10.0616 39.7279C9.39537 40.3388 8.51437 40.6612 7.61115 40.6245H0.5" stroke="#F20823" stroke-linecap="round" stroke-linejoin="round"/>
<path d="M80.5002 40.6245H73.3891C72.4859 40.6612 71.6048 40.3388 70.9386 39.7279C70.2723 39.1169 69.875 38.2671 69.8335 37.3641V14.548C69.875 13.6453 70.2725 12.7958 70.9388 12.1854C71.6052 11.575 72.4862 11.2534 73.3891 11.2911H80.5002" stroke="#F20823" stroke-linecap="round" stroke-linejoin="round"/>
<path d="M40.4998 46.9998L37.0225 43.5225" stroke="#F20823" stroke-linecap="round" stroke-linejoin="round"/>
<path d="M49.1971 41.784L43.9775 36.5645" stroke="#F20823" stroke-linecap="round" stroke-linejoin="round"/>
</svg>
